<?xml version="1.0" encoding="UTF-8"?> <svg xmlns="http://www.w3.org/2000/svg" width="172" height="41" viewBox="0 0 172 41" fill="none"><path d="M7.68242 0.46463C6.61702 1.29292 6.28921 2.74748 6.90386 4.00002C7.76438 5.81823 10.5918 6.00005 11.7801 4.32326C12.6202 3.13133 12.2514 1.15151 11.022 0.424225C10.0796 -0.141438 8.4405 -0.121235 7.68242 0.46463Z" fill="#222222"></path><path d="M55.3184 0.686858C55.3184 2.26263 56.7321 4.18185 58.4941 4.98994C59.9078 5.65661 61.7927 5.65661 63.2064 4.98994C64.9889 4.18185 66.3821 2.22223 66.3821 0.545443V-1.83047e-05L64.9275 0.0605885L63.4728 0.121195L63.2269 0.828274C62.9401 1.71717 61.8747 2.44445 60.8503 2.44445C59.8258 2.44445 58.7604 1.71717 58.4736 0.828274L58.2277 0.121195L56.773 0.0605885L55.3184 -1.83047e-05V0.686858Z" fill="#222222"></path><path d="M30.3223 9.23252C27.8841 9.87899 26.0811 11.1719 25.2001 12.8689C24.8313 13.6164 24.7084 14.2023 24.7084 15.273L24.6879 16.6872L25.405 16.667C25.7943 16.6468 26.6548 16.5255 27.3104 16.4043C28.3144 16.1821 28.4783 16.1013 28.3758 15.7781C28.1915 15.2326 28.7446 14.1215 29.4822 13.4952C30.4247 12.7275 32.1662 12.2629 33.6619 12.4043C35.3419 12.5457 36.6122 13.2528 37.4523 14.4447C38.0259 15.3134 38.1079 15.576 38.1079 16.768V18.1215L35.1371 18.4852C31.7974 18.869 29.5437 19.3741 27.9661 20.1013C23.0488 22.3236 22.5981 28.6671 27.208 30.8489C28.2119 31.3338 28.7037 31.4348 30.5681 31.4954C33.4365 31.5964 35.0551 31.152 36.981 29.7176C37.7186 29.1519 38.3742 28.7075 38.4357 28.7075C38.4767 28.7075 38.5177 28.8489 38.5177 29.0105C38.5177 29.5358 40.1977 31.0308 41.0992 31.2934C44.8691 32.4045 48.3726 30.1823 48.7004 26.465L48.8234 25.2933L48.0243 25.1115C47.5736 24.9903 46.836 24.8287 46.3852 24.7074L45.5247 24.5256L45.4223 25.4953C45.2789 26.6873 44.8281 27.5964 44.152 28.0206C43.7217 28.3034 43.5373 28.3034 43.0456 28.1014C42.7178 27.9802 42.3695 27.7176 42.267 27.5358C42.1851 27.3337 42.0622 24.2428 42.0007 20.6266C41.8983 14.2225 41.8778 14.0407 41.4065 13.1518C40.4026 11.2325 38.4972 9.79819 36.1615 9.19212C34.8297 8.82848 31.7565 8.84868 30.3223 9.23252ZM36.8991 26.1014C33.6619 29.1317 28.4783 28.9701 28.13 25.8186C27.9456 24.2428 29.0315 22.9094 30.9984 22.3438C31.9818 22.061 35.9976 21.3337 37.3908 21.1923L38.0054 21.1317L38.0669 23.0509L38.1284 24.9701L36.8991 26.1014Z" fill="#222222"></path><path d="M158.234 9.21214C153.316 10.5253 150.182 14.8082 150.182 20.2224C150.182 23.6365 151.268 26.3841 153.439 28.5053C155.734 30.7477 157.803 31.5356 161.307 31.5356C165.589 31.5356 168.949 29.6164 170.855 26.081C171.223 25.3941 171.49 24.8083 171.449 24.7679C171.305 24.6265 167.966 23.2325 167.904 23.2931C167.884 23.3335 167.658 23.7174 167.433 24.1618C166.572 25.8386 164.913 27.1113 162.905 27.6164C157.824 28.8891 153.193 24.3436 154.074 18.9698C154.484 16.3637 155.959 14.3839 158.316 13.3132C161.286 11.9394 165.118 12.8687 167.003 15.4344C167.331 15.8789 167.761 16.687 167.966 17.2324C168.15 17.7577 168.355 18.2021 168.416 18.2021C168.478 18.2021 169.215 17.9799 170.055 17.7173C171.428 17.293 171.592 17.1718 171.654 16.687C171.695 16.3839 171.428 15.5152 170.998 14.6465C169.728 11.9798 167.208 10 164.175 9.21214C162.721 8.82829 159.647 8.8485 158.234 9.21214Z" fill="#222222"></path><path d="M0 20.2224V31.1316H1.84396H3.68793V26.4851V21.8386H9.42471H15.1615V26.4851V31.1316H17.0055H18.8494V20.2224V9.31317H17.0055H15.1615V13.7577V18.2022H9.42471H3.68793V13.7577V9.31317H1.84396H0V20.2224Z" fill="#222222"></path><path d="M51.4258 20.2224V31.1316H54.3556H57.2855L61.8954 21.5355L66.4848 11.9193L66.5463 21.5355L66.5873 31.1316H68.4312H70.2752V20.2224V9.29297L67.0585 9.35358L63.8418 9.41419L59.5187 18.283L55.2162 27.1316L55.1547 18.2224L55.1137 9.31317H53.2697H51.4258V20.2224Z" fill="#222222"></path><path d="M76.2168 20.2224V31.1316H77.9583H79.6998L79.7203 21.4749L79.7408 11.8385L81.9126 18.2628L84.1049 24.6871L87.0757 24.6265L90.026 24.5659L92.3003 18.2426L94.554 11.9193L94.6155 21.5355L94.6564 31.1316H96.398H98.1395V20.2224V9.31317H94.7794H91.3988L89.7392 14.4041C88.8172 17.2123 87.9362 19.9598 87.7518 20.5254C87.5879 21.0709 87.383 21.5961 87.3011 21.677C87.2191 21.7578 86.2152 19.0103 85.0678 15.5759L82.937 9.31317H79.5769H76.2168V20.2224Z" fill="#222222"></path><path d="M103.877 20.2224V31.1316H106.807H109.757L114.347 21.5355L118.936 11.9395L118.997 21.5355L119.038 31.1316H120.882H122.726V20.2224V9.29297L119.51 9.35358L116.293 9.41419L111.97 18.283L107.667 27.1518L107.606 18.2426L107.565 9.31317H105.721H103.877V20.2224Z" fill="#222222"></path><path d="M128.668 20.2224V31.1316H130.573H132.458L132.397 26.5861L132.335 22.0406L134.343 22.0608L136.351 22.081L140.531 26.6063L144.71 31.1316H147.497H150.263L149.525 30.3639C145.919 26.6265 139.957 19.9598 140.06 19.7779C140.142 19.6567 142.272 17.2931 144.792 14.5254C147.292 11.7778 149.361 9.47479 149.361 9.41418C149.361 9.35358 148.275 9.31317 146.944 9.31317H144.547L140.449 13.8587L136.351 18.384L134.343 18.4042H132.335L132.397 13.8587L132.458 9.31317H130.573H128.668V20.2224Z" fill="#222222"></path><path d="M7.8679 35.354C7.1713 35.7782 6.55664 36.8691 6.55664 37.6772C6.55664 38.4853 7.04836 39.4954 7.68351 39.9803C8.11377 40.3237 8.52354 40.4247 9.44552 40.4247C10.4904 40.4247 10.6953 40.3439 11.3305 39.7581C13.2154 38.0207 11.9861 34.9701 9.40454 34.9701C8.89233 34.9701 8.2367 35.1318 7.8679 35.354Z" fill="#222222"></path></svg> 